<svg width="192" height="162" viewBox="0 0 192 162" fill="none" xmlns="http://www.w3.org/2000/svg">
<mask id="mask0" mask-type="alpha" maskUnits="userSpaceOnUse" x="12" y="38" width="180" height="124">
<path d="M134.209 56.2328C135.988 57.6209 137.981 58.6997 140.118 59.4189C145.227 61.1378 155.195 64.3671 165.163 66.8196C179.432 70.3294 213.416 95.9334 168.728 133.591C124.041 171.249 50.5071 169.171 25.0765 133.095C-0.354063 97.0194 12.2147 67.9416 54.9158 45.4877C91.3575 26.335 125.098 49.1341 134.209 56.2328Z" fill="#FFD8C8"/>
</mask>
<g mask="url(#mask0)">
<rect x="-5" y="26.001" width="229" height="135" fill="#FFD8C8"/>
<path d="M-14.8772 103.238C3.92239 105.155 2.79991 112.716 14.8341 110.165C26.8759 107.614 28.3115 113.479 36.9782 116.229C45.645 118.978 53.3267 107.163 64.1544 101.932C74.9822 96.7004 91.4986 101.054 99.4018 98.0827C107.305 95.1118 110.436 103.604 117.873 105.201C125.31 106.797 131.19 99.9997 136.68 90.9037C142.171 81.8153 148.081 72.3451 156.358 72.8034C164.635 73.2616 169.568 76.3623 174.539 76.4082C177.12 76.4311 180.526 73.6817 184.305 71.001C197.981 86.1228 206.824 106.278 208.916 126.264C208.947 126.524 208.977 126.784 209.008 127.043L60.9321 125.6L0.845121 125.012C0.700039 124.744 0.539684 124.492 0.394602 124.225C-4.46947 115.656 -10.0131 109.745 -15.4957 104.513C-15.9997 104.032 -16.496 103.559 -17 103.085C-16.3204 103.116 -15.6179 103.161 -14.8772 103.238Z" fill="#333333"/>
<path d="M62.1081 118.436L195.462 119.521C196.607 129.434 195.064 139.255 190.361 147.855C188.612 151.055 186.444 154.087 183.786 156.882C162.261 179.618 122.844 182.444 92.3921 178.381C49.8906 172.707 25.4939 149.772 10.558 122.263C9.73335 120.75 8.87813 119.33 8 118.001L62.1081 118.436Z" fill="#989898"/>
</g>
<g clip-path="url(#clip0)">
<path d="M9.45231 79.9147C17.437 79.1768 19.2083 82.5423 19.2083 82.5423C19.2083 82.5423 19.7806 81.6064 24.2407 82.5963C28.7009 83.5861 28.1104 86.4207 28.1104 86.4207C28.1104 86.4207 35.9316 87.1316 35.3411 89.4892C34.896 91.2799 9.98825 91.4509 -3.80094 90.1641C-4.19154 88.5983 -4.55489 86.9516 -4.86374 85.1969C-4.91825 84.9359 -4.95458 84.6659 -5 84.405C-2.71997 84.162 -0.585278 84.063 0.459358 84.072C0.459358 84.072 3.2935 80.4816 9.45231 79.9147Z" fill="white"/>
<path d="M32.7339 59.6858C27.6742 56.6713 42.5898 55.7354 46.0507 55.7714C46.0507 55.7714 48.9666 52.5859 55.3253 52.091C63.5733 51.4521 65.3992 54.4306 65.3992 54.4306C65.3992 54.4306 65.9896 53.5937 70.5951 54.4846C75.2006 55.3755 74.6011 57.8861 74.6011 57.8861C74.6011 57.8861 82.6765 58.534 82.077 60.6216C81.4775 62.7093 37.0396 62.2504 32.7339 59.6858Z" fill="white"/>
<path d="M116.645 69.7717C113.502 67.9 122.758 67.3151 124.911 67.3421C124.911 67.3421 126.728 65.3624 130.67 65.0564C135.793 64.6605 136.929 66.5142 136.929 66.5142C136.929 66.5142 137.292 66.0013 140.154 66.5502C143.015 67.0991 142.643 68.6559 142.643 68.6559C142.643 68.6559 147.657 69.0518 147.284 70.3566C146.903 71.6524 119.315 71.3555 116.645 69.7717Z" fill="white"/>
</g>
<g clip-path="url(#clip1)">
<path d="M43 84.6527L89.15 154.001L149 111.994L113.756 79.2558L90.3409 45.001L43 84.6527Z" fill="white"/>
<path d="M93.0631 141.485C97.9638 141.485 101.937 137.528 101.937 132.645C101.937 127.763 97.9638 123.805 93.0631 123.805C88.1623 123.805 84.1895 127.763 84.1895 132.645C84.1895 137.528 88.1623 141.485 93.0631 141.485Z" fill="#00A0E3"/>
<path d="M88.729 137.418L92.8479 135.437L97.1191 137.418L92.6957 127.23L88.729 137.418Z" fill="white"/>
<path d="M50.1636 85.072L88.2727 53.1543L109.593 81.5752L69.1823 113.225L50.1636 85.072Z" fill="#E9E9E9"/>
<path d="M52.9481 87.0613C52.8586 87.0613 52.7691 87.0524 52.6885 87.0345C51.1752 86.7312 50.2081 86.5885 50.1902 86.5885C49.4739 86.4814 48.9814 85.8213 49.0799 85.1077C49.1874 84.394 49.841 83.9213 50.5663 84.0015C50.5663 84.0015 51.5871 84.1532 53.2078 84.4743C53.9152 84.6171 54.3719 85.3039 54.2286 86.0176C54.1032 86.6331 53.557 87.0613 52.9481 87.0613Z" fill="#00A0E3"/>
<path d="M104.068 114.046C103.298 114.046 102.546 114.028 101.811 113.992C101.086 113.957 100.531 113.35 100.567 112.628C100.594 111.905 101.22 111.272 101.937 111.388C102.626 111.414 103.343 111.432 104.068 111.432L104.892 111.423C105.635 111.414 106.351 111.388 107.05 111.361C107.775 111.298 108.384 111.887 108.42 112.61C108.455 113.332 107.891 113.939 107.166 113.975C106.45 114.001 105.706 114.028 104.936 114.037L104.068 114.046ZM112.333 113.564C111.679 113.564 111.115 113.074 111.034 112.413C110.945 111.7 111.464 111.049 112.18 110.968C113.953 110.763 115.655 110.487 117.231 110.148C117.911 110.014 118.636 110.442 118.78 111.156C118.932 111.86 118.475 112.556 117.768 112.699C116.111 113.047 114.338 113.332 112.476 113.555C112.431 113.555 112.377 113.564 112.333 113.564ZM96.6806 113.421C96.6 113.421 96.5194 113.413 96.4389 113.404C94.6122 113.065 92.8393 112.592 91.1827 111.985C90.5022 111.735 90.153 110.986 90.4037 110.308C90.6544 109.63 91.4155 109.291 92.0871 109.532C93.6093 110.094 95.239 110.522 96.9224 110.835C97.6298 110.968 98.1043 111.646 97.97 112.36C97.8447 112.975 97.2985 113.421 96.6806 113.421ZM86.9026 109.844C86.6788 109.844 86.4549 109.791 86.249 109.666C84.7536 108.81 83.2851 107.81 81.7718 106.615C81.2077 106.169 81.1092 105.348 81.5569 104.777C82.0047 104.215 82.8374 104.126 83.4015 104.563C84.8163 105.678 86.1684 106.606 87.5563 107.4C88.1831 107.766 88.398 108.56 88.0308 109.184C87.7891 109.603 87.3503 109.844 86.9026 109.844ZM78.6647 103.448C78.3334 103.448 78.0111 103.323 77.7514 103.083C76.5247 101.905 75.3069 100.629 74.0533 99.2646C73.5698 98.7293 73.6056 97.9087 74.1429 97.418C74.6801 96.9363 75.5128 96.972 75.9964 97.5072C77.2052 98.8275 78.3872 100.059 79.5691 101.2C80.0885 101.7 80.1064 102.529 79.596 103.047C79.3453 103.314 79.005 103.448 78.6647 103.448ZM71.573 95.7588C71.2059 95.7588 70.8387 95.6072 70.5791 95.3039L70.1135 94.7597C69.3434 93.8498 68.2778 92.9667 66.9616 92.1281C66.3527 91.7446 66.1646 90.9328 66.5586 90.3262C66.9526 89.7196 67.7585 89.5412 68.3674 89.9248C69.9165 90.906 71.179 91.9676 72.1192 93.0737L72.5669 93.6C73.0415 94.1442 72.9699 94.9738 72.4236 95.4377C72.1819 95.6607 71.8774 95.7588 71.573 95.7588ZM62.9859 89.9961C62.8158 89.9961 62.6546 89.9694 62.4934 89.898C61.0249 89.3003 59.4042 88.7473 57.6671 88.2477C56.9776 88.0515 56.5747 87.3289 56.7717 86.6331C56.9776 85.9373 57.685 85.5359 58.3924 85.741C60.2191 86.2674 61.9293 86.8472 63.4784 87.4805C64.15 87.7571 64.4723 88.5153 64.1947 89.1844C63.9977 89.6839 63.5052 89.9961 62.9859 89.9961Z" fill="#00A0E3"/>
<path d="M122.639 111.325C122.102 111.325 121.591 110.995 121.403 110.451C121.161 109.773 121.52 109.024 122.2 108.783C123.678 108.265 124.412 107.873 124.421 107.873C125.056 107.525 125.844 107.766 126.194 108.399C126.534 109.033 126.301 109.818 125.665 110.165C125.63 110.183 124.761 110.647 123.069 111.245C122.925 111.298 122.782 111.325 122.639 111.325Z" fill="#00A0E3"/>
<path d="M131.584 107.864C131.584 107.864 110.649 76.883 130.59 76.883C149.815 76.883 131.584 107.864 131.584 107.864Z" fill="#EA5B21"/>
<path d="M130.348 91.5037C133.029 91.5037 135.201 89.339 135.201 86.6688C135.201 83.9985 133.029 81.8339 130.348 81.8339C127.668 81.8339 125.495 83.9985 125.495 86.6688C125.495 89.339 127.668 91.5037 130.348 91.5037Z" fill="white"/>
<path d="M102.841 90.9239L74.2143 62.3336C73.7039 61.8251 72.8712 61.8251 72.3608 62.3336C71.8504 62.842 71.8504 63.6627 72.3608 64.1801L79.6316 71.4414L68.1523 83.2433L56.2343 77.2665C55.5896 76.9454 54.8016 77.1952 54.4792 77.8464C54.1569 78.4887 54.4165 79.2737 55.0613 79.5948L82.094 93.1451L91.5228 99.7017C91.7467 99.8623 92.0153 99.9336 92.275 99.9336C92.6869 99.9336 93.0898 99.7374 93.3495 99.3716C93.7614 98.7829 93.6181 97.9711 93.0271 97.5518L84.0013 91.2986L88.5052 80.2906L101.005 92.7704C101.265 93.0291 101.596 93.154 101.928 93.154C102.259 93.154 102.599 93.0291 102.85 92.7704C103.351 92.262 103.351 91.4324 102.841 90.9239ZM81.6821 90.0229L70.6058 84.4654L81.4851 73.288L86.4816 78.2746L81.6821 90.0229Z" fill="white"/>
</g>
<path fill-rule="evenodd" clip-rule="evenodd" d="M172.631 65.4035C177.398 67.1384 182.668 64.6807 184.403 59.9139C186.138 55.1471 183.681 49.8764 178.914 48.1414C174.147 46.4065 168.876 48.8642 167.141 53.631C165.406 58.3978 167.864 63.6685 172.631 65.4035Z" stroke="#989898" stroke-width="4.0095" stroke-dasharray="8.02 4.41"/>
<path fill-rule="evenodd" clip-rule="evenodd" d="M174.724 58.0615L174.493 58.6962L175.882 59.202L176.042 58.7635C176.095 58.6173 176.152 58.4965 176.213 58.4011C176.274 58.3057 176.344 58.2267 176.424 58.1642C176.504 58.1017 176.596 58.046 176.701 57.9972C176.806 57.9483 176.931 57.8936 177.076 57.8329C177.304 57.7332 177.521 57.6376 177.724 57.5462C177.928 57.4548 178.117 57.3494 178.292 57.23C178.467 57.1106 178.624 56.9674 178.763 56.8003C178.903 56.6333 179.019 56.4228 179.111 56.169C179.243 55.8074 179.298 55.4637 179.276 55.1379C179.255 54.8121 179.169 54.515 179.017 54.2464C178.866 53.9778 178.66 53.7394 178.399 53.5312C178.138 53.323 177.834 53.1557 177.486 53.0292C177.116 52.8944 176.757 52.8227 176.411 52.8141C176.064 52.8056 175.737 52.8585 175.428 52.9728C175.12 53.0871 174.84 53.2618 174.588 53.4969C174.337 53.7321 174.12 54.0258 173.94 54.3782L175.38 55.0332C175.526 54.729 175.743 54.5052 176.031 54.3618C176.319 54.2184 176.625 54.2057 176.95 54.3237C177.251 54.4333 177.465 54.6182 177.594 54.8784C177.722 55.1385 177.732 55.4186 177.622 55.7186C177.51 56.0264 177.323 56.2413 177.06 56.3634L175.84 56.9389C175.68 57.0199 175.543 57.0898 175.43 57.1488C175.316 57.2078 175.217 57.2762 175.132 57.3541C175.047 57.432 174.973 57.5271 174.91 57.6393C174.847 57.7515 174.785 57.8923 174.724 58.0615ZM174.181 59.6803C173.935 59.7913 173.767 59.9698 173.677 60.216C173.633 60.3391 173.616 60.4636 173.627 60.5896C173.638 60.7156 173.672 60.8325 173.729 60.9403C173.786 61.0482 173.862 61.1455 173.957 61.2324C174.052 61.3194 174.161 61.3853 174.285 61.4302C174.54 61.523 174.79 61.5139 175.036 61.403C175.282 61.2921 175.449 61.1135 175.539 60.8673C175.628 60.6211 175.611 60.3797 175.488 60.143C175.364 59.9063 175.179 59.743 174.932 59.6531C174.677 59.5603 174.426 59.5694 174.181 59.6803Z" fill="#989898"/>
<path fill-rule="evenodd" clip-rule="evenodd" d="M33.6629 68.3175C43.7829 64.6341 49.0009 53.4441 45.3175 43.324C41.6341 33.2039 30.4441 27.986 20.324 31.6694C10.204 35.3528 4.986 46.5428 8.66941 56.6628C12.3528 66.7829 23.5428 72.0009 33.6629 68.3175Z" stroke="#989898" stroke-width="4.0095" stroke-dasharray="8.02 4.41"/>
<path fill-rule="evenodd" clip-rule="evenodd" d="M27.0477 53.5203L27.5381 54.8678L30.4885 53.7939L30.1497 52.8629C30.0367 52.5526 29.9647 52.2782 29.9336 52.0398C29.9025 51.8014 29.909 51.5771 29.9532 51.3668C29.9973 51.1565 30.0716 50.9399 30.176 50.7169C30.2805 50.4939 30.4088 50.2344 30.561 49.9386C30.7968 49.4643 31.018 49.0139 31.2247 48.5872C31.4313 48.1605 31.5952 47.731 31.7162 47.2985C31.8372 46.866 31.8972 46.4187 31.8961 45.9567C31.895 45.4947 31.7963 44.9941 31.6002 44.4551C31.3207 43.6875 30.9414 43.0533 30.4622 42.5525C29.9829 42.0518 29.4369 41.6864 28.8241 41.4562C28.2113 41.2261 27.5508 41.1197 26.8424 41.1371C26.1341 41.1544 25.4111 41.2973 24.6735 41.5658C23.8867 41.8521 23.2057 42.2249 22.6303 42.684C22.0549 43.1432 21.5945 43.676 21.2491 44.2827C20.9038 44.8893 20.6869 45.5555 20.5984 46.2814C20.5099 47.0073 20.5591 47.7801 20.7461 48.5999L23.9824 47.6995C23.8042 47.0059 23.8517 46.3459 24.1248 45.7193C24.3979 45.0927 24.8787 44.6541 25.5671 44.4036C26.2064 44.1709 26.8078 44.1786 27.3715 44.4266C27.9351 44.6747 28.3328 45.1172 28.5647 45.7542C28.8025 46.4075 28.7908 47.0129 28.5296 47.5704L27.332 50.1705C27.1813 50.5213 27.054 50.822 26.9503 51.0724C26.8465 51.3229 26.7786 51.5696 26.7463 51.8126C26.7141 52.0555 26.7236 52.311 26.7747 52.5791C26.8259 52.8472 26.9169 53.1609 27.0477 53.5203ZM28.3734 56.8945C28.1249 57.4103 28.0958 57.9296 28.286 58.4523C28.3812 58.7136 28.5236 58.9392 28.7134 59.1291C28.9031 59.319 29.1179 59.4628 29.3577 59.5605C29.5974 59.6582 29.854 59.7128 30.1273 59.7243C30.4006 59.7358 30.6684 59.6938 30.9307 59.5984C31.4716 59.4015 31.8663 59.0452 32.1147 58.5293C32.3632 58.0134 32.3923 57.4941 32.2021 56.9715C32.0118 56.4488 31.6546 56.0794 31.1304 55.8632C30.6063 55.6471 30.0819 55.6344 29.5574 55.8254C29.0165 56.0222 28.6218 56.3786 28.3734 56.8945Z" fill="#989898"/>
<path opacity="0.5" d="M111.27 37.6613C111.165 37.6613 110.868 37.6168 110.345 37.3633C109.843 37.1196 109.24 36.7351 108.559 36.2019L106.087 39.359C106.918 40.0094 107.764 40.5677 108.595 40.9708C109.406 41.3642 110.326 41.6708 111.27 41.6708V37.6613ZM105.298 33.0631C103.53 31.0661 101.809 28.6462 100.479 26.1675L96.9457 28.0628C98.4315 30.8325 100.335 33.5059 102.295 35.7205L105.298 33.0631ZM98.6779 22.0186C98.2327 20.6319 98.0048 19.3659 98.0048 18.2698H93.9952C93.9952 19.8946 94.3277 21.5853 94.8603 23.2442L98.6779 22.0186ZM98.0048 18.2698C98.0048 17.1181 98.151 16.0036 98.425 14.9424L94.5428 13.9401C94.185 15.3259 93.9952 16.7771 93.9952 18.2698H98.0048ZM99.8353 11.541C100.979 9.6023 102.602 7.97893 104.541 6.83525L102.504 3.38188C99.9808 4.87021 97.8702 6.98083 96.3819 9.50373L99.8353 11.541ZM107.942 5.42501C109.004 5.15104 110.118 5.00475 111.27 5.00475V0.99525C109.777 0.99525 108.326 1.18503 106.94 1.54282L107.942 5.42501ZM111.27 5.00475C112.421 5.00475 113.536 5.15104 114.597 5.42501L115.599 1.54282C114.214 1.18503 112.762 0.99525 111.27 0.99525V5.00475ZM117.999 6.83525C119.937 7.97893 121.561 9.6023 122.704 11.541L126.158 9.50373C124.669 6.98083 122.559 4.87021 120.036 3.38188L117.999 6.83525ZM124.115 14.9424C124.389 16.0036 124.535 17.1181 124.535 18.2698H128.544C128.544 16.7771 128.355 15.3259 127.997 13.9401L124.115 14.9424ZM124.535 18.2698C124.535 19.3659 124.307 20.6319 123.862 22.0186L127.679 23.2442C128.212 21.5853 128.544 19.8946 128.544 18.2698H124.535ZM122.061 26.1675C120.731 28.6462 119.009 31.0661 117.242 33.0631L120.244 35.7205C122.204 33.5059 124.108 30.8325 125.594 28.0628L122.061 26.1675ZM113.981 36.2019C113.3 36.7351 112.697 37.1196 112.194 37.3633C111.672 37.6168 111.375 37.6613 111.27 37.6613V41.6708C112.213 41.6708 113.133 41.3642 113.944 40.9708C114.775 40.5677 115.622 40.0094 116.453 39.359L113.981 36.2019ZM111.548 20.4886C110.958 20.4886 110.409 20.3368 109.932 20.0716L107.983 23.5755C109.041 24.1638 110.258 24.4981 111.548 24.4981V20.4886ZM108.633 18.7721C108.367 18.2953 108.216 17.7463 108.216 17.1559H104.206C104.206 18.4457 104.54 19.6635 105.129 20.7211L108.633 18.7721ZM108.216 17.1559C108.216 16.5654 108.367 16.0165 108.633 15.5396L105.129 13.5907C104.54 14.6483 104.206 15.866 104.206 17.1559H108.216ZM109.932 14.2402C110.409 13.975 110.958 13.8232 111.548 13.8232V9.81367C110.258 9.81367 109.041 10.148 107.983 10.7362L109.932 14.2402ZM111.548 13.8232C112.139 13.8232 112.688 13.975 113.164 14.2402L115.113 10.7362C114.056 10.148 112.838 9.81367 111.548 9.81367V13.8232ZM114.464 15.5396C114.729 16.0165 114.881 16.5654 114.881 17.1559H118.89C118.89 15.866 118.556 14.6483 117.968 13.5907L114.464 15.5396ZM114.881 17.1559C114.881 17.7463 114.729 18.2953 114.464 18.7721L117.968 20.7211C118.556 19.6635 118.89 18.4457 118.89 17.1559H114.881ZM113.164 20.0716C112.688 20.3368 112.139 20.4886 111.548 20.4886V24.4981C112.838 24.4981 114.056 24.1638 115.113 23.5755L113.164 20.0716Z" fill="#EA5B21"/>
<defs>
<clipPath id="clip0">
<rect width="174" height="39" fill="white" transform="translate(-5 52.001)"/>
</clipPath>
<clipPath id="clip1">
<rect width="106" height="109" fill="white" transform="translate(43 45.001)"/>
</clipPath>
</defs>
</svg>
